<?xml version="1.0" encoding="UTF-8"?>
<svg width="16px" height="20px" viewBox="0 0 16 20" version="1.1" xmlns="http://www.w3.org/2000/svg" xmlns:xlink="http://www.w3.org/1999/xlink">
    <!-- Generator: sketchtool 42 (36781) - http://www.bohemiancoding.com/sketch -->
    <title>9DA5FA7C-2F1E-446D-A461-BD047BE99C13</title>
    <desc>Created with sketchtool.</desc>
    <defs></defs>
    <g id="Page-1" stroke="none" stroke-width="1" fill="none" fill-rule="evenodd">
        <g id="Contact-Us@2x" transform="translate(-1425.000000, -306.000000)" fill="#FEFEFE">
            <path d="M1432.99997,317.07688 C1432.32059,317.07688 1431.7692,317.628263 1431.7692,318.307645 C1431.7692,318.761797 1432.01843,319.154411 1432.38459,319.367949 L1432.38459,321.384556 C1432.38459,321.724247 1432.66028,321.999938 1432.99997,321.999938 C1433.33966,321.999938 1433.61535,321.724247 1433.61535,321.384556 L1433.61535,319.367949 C1433.9815,319.154411 1434.23073,318.762412 1434.23073,318.307645 C1434.23073,317.628263 1433.67997,317.07688 1432.99997,317.07688 L1432.99997,317.07688 Z M1439.76917,323.230703 C1439.76917,323.90947 1439.21656,324.461467 1438.53841,324.461467 L1427.46153,324.461467 C1426.78338,324.461467 1426.23076,323.90947 1426.23076,323.230703 L1426.23076,315.846116 C1426.23076,315.167965 1426.78338,314.615351 1427.46153,314.615351 L1438.53841,314.615351 C1439.21656,314.615351 1439.76917,315.167965 1439.76917,315.846116 L1439.76917,323.230703 Z M1429.30768,311.036288 C1429.30768,308.937835 1430.74152,307.230764 1432.9772,307.230764 C1435.19011,307.230764 1436.69226,308.902143 1436.69226,311.036288 L1436.69226,313.384587 L1429.30768,313.384587 L1429.30768,311.036288 Z M1438.53841,313.384587 L1437.92303,313.384587 L1437.92303,311.036288 C1437.92303,308.212299 1435.87996,306 1432.9772,306 C1430.06275,306 1428.07691,308.259068 1428.07691,311.036288 L1428.07691,313.384587 L1427.46153,313.384587 C1426.104,313.384587 1425,314.488583 1425,315.846116 L1425,323.230703 C1425,324.588236 1426.104,325.692232 1427.46153,325.692232 L1438.53841,325.692232 C1439.89594,325.692232 1440.99994,324.588236 1440.99994,323.230703 L1440.99994,315.846116 C1440.99994,314.488583 1439.89594,313.384587 1438.53841,313.384587 L1438.53841,313.384587 Z" id="Page-1"></path>
        </g>
    </g>
</svg>